<svg width="197" height="156" viewBox="0 0 197 156" fill="none" xmlns="http://www.w3.org/2000/svg">
<path d="M194.19 155.739L135.339 135.356C134.887 135.208 134.419 134.95 133.961 134.597C133.504 134.244 133.066 133.804 132.675 133.302C132.283 132.801 131.945 132.248 131.682 131.677C131.418 131.106 131.234 130.529 131.14 129.979C131.032 129.424 131.015 128.905 131.092 128.452C131.168 127.999 131.336 127.621 131.584 127.341C131.833 127.062 132.158 126.886 132.54 126.824C132.921 126.761 133.352 126.815 133.806 126.98L184.245 144.379L119.535 61.5155C101.232 38.1091 79.0772 20.8505 57.9306 13.5263C36.7839 6.20217 18.3728 9.41075 6.73685 22.448C6.23164 23.0162 5.43111 23.1564 4.51139 22.8378C3.59166 22.5193 2.62807 21.7681 1.8326 20.7495C1.03713 19.7308 0.474934 18.5282 0.269693 17.4062C0.0644472 16.2842 0.232974 15.3347 0.738191 14.7666C13.4005 0.622685 33.4117 -2.84998 56.3908 5.10883C79.3699 13.0676 103.445 31.8095 123.345 57.2312L188.055 140.095L176.858 78.5674C176.791 77.6002 177.035 76.8206 177.543 76.3718C178.052 75.923 178.791 75.8351 179.626 76.1242C180.461 76.4133 181.335 77.0601 182.088 77.9457C182.84 78.8313 183.421 79.8964 183.724 80.9454L196.857 152.74C196.965 153.295 196.981 153.814 196.904 154.267C196.828 154.72 196.661 155.098 196.412 155.378C196.163 155.657 195.838 155.833 195.456 155.896C195.075 155.958 194.644 155.904 194.19 155.739Z" fill="#00D3FF" fill-opacity="0.15"/>
</svg>
